<svg width="54" height="54" viewBox="0 0 54 54" fill="none" xmlns="http://www.w3.org/2000/svg">
<g clip-path="url(#clip0_106_94)">
<mask id="mask0_106_94" style="mask-type:luminance" maskUnits="userSpaceOnUse" x="0" y="0" width="54" height="54">
<path d="M0 0H54V54H0V0Z" fill="white"/>
</mask>
<g mask="url(#mask0_106_94)">
<path fill-rule="evenodd" clip-rule="evenodd" d="M0 0H54V54H0V0ZM20.25 18.5625C20.25 19.9052 19.7166 21.1928 18.7672 22.1422C17.8178 23.0916 16.5302 23.625 15.1875 23.625C14.5226 23.6251 13.8643 23.4943 13.25 23.2399C12.6357 22.9856 12.0776 22.6127 11.6074 22.1426C11.1373 21.6724 10.7644 21.1143 10.5101 20.5C10.2557 19.8857 10.1249 19.2274 10.125 18.5625C10.125 15.7657 12.3907 13.5 15.1875 13.5C17.9842 13.5 20.25 15.7657 20.25 18.5625ZM15.1875 25.875C11.6213 25.875 4.5 27.8854 4.5 31.8746V40.5H25.875V31.8746C25.875 27.8854 18.7537 25.875 15.1875 25.875ZM43.875 18.5625C43.875 19.9052 43.3416 21.1928 42.3922 22.1422C41.4428 23.0916 40.1552 23.625 38.8125 23.625C38.1476 23.6251 37.4893 23.4943 36.875 23.2399C36.2607 22.9856 35.7026 22.6127 35.2324 22.1426C34.7623 21.6724 34.3894 21.1143 34.1351 20.5C33.8807 19.8857 33.7499 19.2274 33.75 18.5625C33.75 15.7657 36.0158 13.5 38.8125 13.5C41.6092 13.5 43.875 15.7657 43.875 18.5625ZM27 20.25C27.8951 20.25 28.7536 19.8944 29.3865 19.2615C30.0194 18.6286 30.375 17.7701 30.375 16.875C30.375 15.9799 30.0194 15.1214 29.3865 14.4885C28.7536 13.8556 27.8951 13.5 27 13.5C26.1049 13.5 25.2464 13.8556 24.6135 14.4885C23.9806 15.1214 23.625 15.9799 23.625 16.875C23.625 17.7701 23.9806 18.6286 24.6135 19.2615C25.2464 19.8944 26.1049 20.25 27 20.25ZM28.125 31.8746C28.125 27.8854 35.2463 25.875 38.8125 25.875C42.3787 25.875 49.5 27.8854 49.5 31.8746V40.5H28.125V31.8746ZM31.4573 25.3102C31.7486 25.1865 32.0445 25.0684 32.3449 24.9581C30.6315 24.0705 28.4287 23.625 27 23.625C25.5713 23.625 23.3685 24.0705 21.6562 24.9581C21.9555 25.0684 22.2525 25.1854 22.5416 25.3102C23.8601 25.8727 25.1899 26.6332 26.2237 27.6502C26.5005 27.9236 26.7638 28.2218 27 28.5469C27.2362 28.2218 27.4995 27.9236 27.7763 27.6502C28.8101 26.6332 30.1399 25.8727 31.4573 25.3102Z" fill="black"/>
</g>
</g>
<defs>
<clipPath id="clip0_106_94">
<rect width="54" height="54" fill="white"/>
</clipPath>
</defs>
</svg>
