<svg width="1080" height="1080" viewBox="0 0 1080 1080" fill="none" xmlns="http://www.w3.org/2000/svg">
<rect width="1080" height="1080" fill="#949494"/>
<rect width="1080" height="1080" fill="white"/>
<path d="M619.323 230.338H789.984V401H619.323V230.338Z" fill="#1B998B"/>
<line x1="278" y1="229.128" x2="790" y2="229.128" stroke="#1B998B" stroke-width="18.9624"/>
<line x1="278" y1="398.629" x2="790" y2="398.629" stroke="#1B998B" stroke-width="18.9624"/>
<path d="M278 566.13H794" stroke="#1B998B" stroke-width="18.9624"/>
<line x1="278" y1="735.631" x2="790" y2="735.631" stroke="#1B998B" stroke-width="18.9624"/>
<path d="M278.782 220L278.782 744.759M450.245 220L450.245 744.76M620.514 220L620.514 482.38L620.514 744.76M785.782 220L785.782 569.707" stroke="#1B998B" stroke-width="16.38"/>
<rect x="278" y="230.338" width="170.661" height="170.661" fill="#1B998B"/>
<rect x="278" y="571.661" width="170.661" height="170.661" fill="#1B998B"/>
<path d="M272.331 779.639H286.939L301.381 800.887L315.74 779.639H330.348V835H312.669V815.08L301.381 831.68L290.01 815.08V835H272.331V779.639ZM334.876 807.361C334.876 803.377 335.623 799.614 337.117 796.073C338.666 792.532 340.741 789.461 343.342 786.86C345.998 784.204 349.096 782.129 352.638 780.635C356.179 779.086 359.942 778.311 363.926 778.311C367.91 778.311 371.672 779.086 375.214 780.635C378.755 782.129 381.826 784.204 384.427 786.86C387.083 789.461 389.158 792.532 390.652 796.073C392.201 799.614 392.976 803.377 392.976 807.361C392.976 811.345 392.201 815.108 390.652 818.649C389.158 822.19 387.083 825.289 384.427 827.945C381.826 830.546 378.755 832.621 375.214 834.17C371.672 835.664 367.91 836.411 363.926 836.411C359.942 836.411 356.179 835.664 352.638 834.17C349.096 832.621 345.998 830.546 343.342 827.945C340.741 825.289 338.666 822.19 337.117 818.649C335.623 815.108 334.876 811.345 334.876 807.361ZM352.306 807.361C352.306 808.966 352.61 810.487 353.219 811.926C353.827 813.309 354.657 814.527 355.709 815.578C356.76 816.629 357.977 817.459 359.361 818.068C360.799 818.677 362.321 818.981 363.926 818.981C365.53 818.981 367.024 818.677 368.408 818.068C369.846 817.459 371.091 816.629 372.143 815.578C373.194 814.527 374.024 813.309 374.633 811.926C375.241 810.487 375.546 808.966 375.546 807.361C375.546 805.756 375.241 804.262 374.633 802.879C374.024 801.44 373.194 800.195 372.143 799.144C371.091 798.093 369.846 797.263 368.408 796.654C367.024 796.045 365.53 795.741 363.926 795.741C362.321 795.741 360.799 796.045 359.361 796.654C357.977 797.263 356.76 798.093 355.709 799.144C354.657 800.195 353.827 801.44 353.219 802.879C352.61 804.262 352.306 805.756 352.306 807.361ZM397.56 835V779.639H412.915C418.117 779.639 422.737 780.22 426.776 781.382C430.871 782.544 434.302 784.287 437.068 786.611C439.89 788.935 442.021 791.84 443.459 795.326C444.953 798.757 445.7 802.741 445.7 807.278C445.7 811.815 444.953 815.827 443.459 819.313C442.021 822.744 439.89 825.621 437.068 827.945C434.302 830.269 430.871 832.04 426.776 833.257C422.737 834.419 418.117 835 412.915 835H397.56ZM415.239 819.23C419.389 819.23 422.599 818.262 424.867 816.325C427.136 814.333 428.27 811.317 428.27 807.278C428.27 803.239 427.136 800.251 424.867 798.314C422.599 796.377 419.389 795.409 415.239 795.409V819.23ZM450.246 779.639H482.865V794.164H467.925V800.306H482.616V814.084H467.925V820.475H483.446V835H450.246V779.639ZM488.423 779.639H507.513C511.054 779.639 514.319 780.109 517.307 781.05C520.35 781.991 522.978 783.374 525.192 785.2C527.405 787.026 529.12 789.295 530.338 792.006C531.61 794.662 532.247 797.733 532.247 801.219C532.247 803.986 531.859 806.337 531.085 808.274C530.31 810.211 529.452 811.815 528.512 813.088C527.405 814.527 526.16 815.744 524.777 816.74L535.152 835H514.402L506.102 820.973V835H488.423V779.639ZM506.102 806.863H507.015C509.117 806.863 510.888 806.393 512.327 805.452C513.821 804.511 514.568 802.934 514.568 800.721C514.568 798.508 513.821 796.931 512.327 795.99C510.888 795.049 509.117 794.579 507.015 794.579H506.102V806.863ZM536.812 779.639H551.337L566.609 800.97V779.639H583.956V835H569.348L554.159 813.752V835H536.812V779.639ZM606.357 779.639H620.965L635.407 800.887L649.766 779.639H664.374V835H646.695V815.08L635.407 831.68L624.036 815.08V835H606.357V779.639ZM670.147 779.639H702.766V794.164H687.826V800.306H702.517V814.084H687.826V820.475H703.347V835H670.147V779.639ZM708.324 779.639H722.849L738.121 800.97V779.639H755.468V835H740.86L725.671 813.752V835H708.324V779.639ZM783.912 836.411C780.426 836.411 777.272 835.968 774.45 835.083C771.628 834.198 769.221 832.87 767.229 831.099C765.237 829.328 763.687 827.087 762.581 824.376C761.529 821.665 761.004 818.483 761.004 814.831V779.639H778.683V814.084C778.683 816.021 779.07 817.515 779.845 818.566C780.675 819.562 782.03 820.06 783.912 820.06C785.793 820.06 787.121 819.562 787.896 818.566C788.726 817.515 789.141 816.021 789.141 814.084V779.639H806.903V814.831C806.903 818.483 806.349 821.665 805.243 824.376C804.191 827.087 802.642 829.328 800.595 831.099C798.603 832.87 796.196 834.198 793.374 835.083C790.552 835.968 787.398 836.411 783.912 836.411Z" fill="#1B998B"/>
</svg>
