<svg width="1080" height="1080" viewBox="0 0 1080 1080" fill="none" xmlns="http://www.w3.org/2000/svg">
<rect width="1080" height="1080" fill="#949494"/>
<rect width="1080" height="1080" fill="#F5FFFE"/>
<path d="M660.965 71.6693H919.627V330.331H660.965V71.6693Z" fill="#1B998B"/>
<line x1="143.641" y1="69.8353" x2="919.651" y2="69.8353" stroke="#1B998B" stroke-width="28.7402"/>
<line x1="143.641" y1="326.739" x2="919.651" y2="326.739" stroke="#1B998B" stroke-width="28.7402"/>
<path d="M143.641 580.611H925.714" stroke="#1B998B" stroke-width="28.7402"/>
<line x1="143.641" y1="837.514" x2="919.651" y2="837.514" stroke="#1B998B" stroke-width="28.7402"/>
<path d="M144.826 56L144.826 851.349M404.704 56L404.704 851.349M662.77 56L662.77 453.675L662.77 851.349M913.258 56L913.258 586.031" stroke="#1B998B" stroke-width="24.8263"/>
<rect x="143.641" y="71.6693" width="258.662" height="258.662" fill="#1B998B"/>
<rect x="143.641" y="588.993" width="258.662" height="258.662" fill="#1B998B"/>
<path d="M134.566 903.963H156.707L178.596 936.167L200.359 903.963H222.499V987.87H195.704V957.679L178.596 982.838L161.361 957.679V987.87H134.566V903.963ZM229.362 945.979C229.362 939.941 230.495 934.238 232.759 928.871C235.107 923.503 238.252 918.849 242.194 914.907C246.219 910.882 250.916 907.737 256.283 905.472C261.651 903.124 267.353 901.95 273.392 901.95C279.43 901.95 285.133 903.124 290.5 905.472C295.868 907.737 300.522 910.882 304.464 914.907C308.49 918.849 311.635 923.503 313.899 928.871C316.247 934.238 317.421 939.941 317.421 945.979C317.421 952.018 316.247 957.721 313.899 963.088C311.635 968.455 308.49 973.152 304.464 977.177C300.522 981.119 295.868 984.264 290.5 986.612C285.133 988.877 279.43 990.009 273.392 990.009C267.353 990.009 261.651 988.877 256.283 986.612C250.916 984.264 246.219 981.119 242.194 977.177C238.252 973.152 235.107 968.455 232.759 963.088C230.495 957.721 229.362 952.018 229.362 945.979ZM255.78 945.979C255.78 948.412 256.241 950.718 257.164 952.898C258.086 954.995 259.344 956.84 260.938 958.433C262.531 960.027 264.376 961.285 266.473 962.207C268.653 963.13 270.96 963.591 273.392 963.591C275.824 963.591 278.088 963.13 280.185 962.207C282.365 961.285 284.252 960.027 285.846 958.433C287.439 956.84 288.697 954.995 289.62 952.898C290.542 950.718 291.004 948.412 291.004 945.979C291.004 943.547 290.542 941.283 289.62 939.186C288.697 937.006 287.439 935.119 285.846 933.525C284.252 931.932 282.365 930.674 280.185 929.751C278.088 928.829 275.824 928.368 273.392 928.368C270.96 928.368 268.653 928.829 266.473 929.751C264.376 930.674 262.531 931.932 260.938 933.525C259.344 935.119 258.086 937.006 257.164 939.186C256.241 941.283 255.78 943.547 255.78 945.979ZM324.37 987.87V903.963H347.642C355.526 903.963 362.529 904.843 368.651 906.604C374.857 908.366 380.057 911.007 384.25 914.53C388.527 918.052 391.756 922.455 393.936 927.739C396.201 932.938 397.333 938.977 397.333 945.854C397.333 952.731 396.201 958.811 393.936 964.094C391.756 969.294 388.527 973.655 384.25 977.177C380.057 980.7 374.857 983.384 368.651 985.229C362.529 986.99 355.526 987.87 347.642 987.87H324.37ZM351.165 963.969C357.455 963.969 362.319 962.501 365.757 959.566C369.196 956.547 370.915 951.976 370.915 945.854C370.915 939.731 369.196 935.203 365.757 932.267C362.319 929.332 357.455 927.864 351.165 927.864V963.969ZM404.222 903.963H453.661V925.977H431.017V935.287H453.284V956.169H431.017V965.856H454.542V987.87H404.222V903.963ZM462.085 903.963H491.018C496.386 903.963 501.334 904.676 505.863 906.101C510.475 907.527 514.459 909.624 517.814 912.391C521.168 915.159 523.768 918.597 525.613 922.707C527.542 926.732 528.506 931.387 528.506 936.67C528.506 940.864 527.919 944.428 526.745 947.363C525.571 950.299 524.271 952.731 522.845 954.66C521.168 956.84 519.281 958.685 517.185 960.195L532.909 987.87H501.46L488.88 966.61V987.87H462.085V903.963ZM488.88 945.225H490.264C493.451 945.225 496.134 944.512 498.315 943.086C500.579 941.66 501.711 939.27 501.711 935.916C501.711 932.561 500.579 930.171 498.315 928.745C496.134 927.319 493.451 926.606 490.264 926.606H488.88V945.225ZM535.426 903.963H557.441L580.588 936.293V903.963H606.88V987.87H584.739L561.718 955.666V987.87H535.426V903.963ZM640.832 903.963H662.972L684.861 936.167L706.624 903.963H728.765V987.87H701.97V957.679L684.861 982.838L667.627 957.679V987.87H640.832V903.963ZM737.515 903.963H786.954V925.977H764.31V935.287H786.576V956.169H764.31V965.856H787.834V987.87H737.515V903.963ZM795.377 903.963H817.392L840.539 936.293V903.963H866.831V987.87H844.69L821.669 955.666V987.87H795.377V903.963ZM909.941 990.009C904.658 990.009 899.878 989.338 895.6 987.996C891.323 986.654 887.675 984.642 884.656 981.958C881.637 979.274 879.288 975.878 877.611 971.768C876.018 967.659 875.221 962.836 875.221 957.301V903.963H902.016V956.169C902.016 959.104 902.603 961.369 903.777 962.962C905.035 964.472 907.09 965.227 909.941 965.227C912.793 965.227 914.806 964.472 915.98 962.962C917.238 961.369 917.867 959.104 917.867 956.169V903.963H944.788V957.301C944.788 962.836 943.949 967.659 942.272 971.768C940.678 975.878 938.33 979.274 935.227 981.958C932.208 984.642 928.56 986.654 924.282 987.996C920.005 989.338 915.225 990.009 909.941 990.009Z" fill="#1B998B"/>
</svg>
