<svg width="54" height="54" viewBox="0 0 54 54" fill="none" xmlns="http://www.w3.org/2000/svg">
<path d="M46.6853 27L49.1693 22.707C49.4678 22.1905 49.549 21.5766 49.395 21.0003C49.241 20.4239 48.8644 19.9323 48.3481 19.6335L44.0506 17.1495V12.1995C44.0506 11.6028 43.8135 11.0305 43.3915 10.6085C42.9696 10.1866 42.3973 9.94954 41.8006 9.94954H36.8528L34.3711 5.65429C34.0713 5.13885 33.5807 4.76217 33.0053 4.60579C32.7199 4.52842 32.422 4.50847 32.1289 4.5471C31.8357 4.58572 31.5532 4.68215 31.2976 4.83079L27.0001 7.31479L22.7026 4.82854C22.1858 4.53018 21.5716 4.44933 20.9953 4.60376C20.4189 4.7582 19.9274 5.13527 19.6291 5.65204L17.1451 9.94954H12.1973C11.6006 9.94954 11.0283 10.1866 10.6063 10.6085C10.1844 11.0305 9.9473 11.6028 9.9473 12.1995V17.1473L5.6498 19.6313C5.39338 19.7788 5.16862 19.9755 4.98845 20.2101C4.80828 20.4448 4.67624 20.7127 4.59993 20.9985C4.52362 21.2843 4.50453 21.5824 4.54376 21.8756C4.583 22.1688 4.67978 22.4513 4.82855 22.707L7.31255 27L4.82855 31.293C4.53153 31.81 4.45094 32.4235 4.60436 32.9996C4.75778 33.5758 5.13276 34.068 5.64755 34.3688L9.94506 36.8528V41.8005C9.94506 42.3973 10.1821 42.9696 10.6041 43.3915C11.026 43.8135 11.5983 44.0505 12.1951 44.0505H17.1451L19.6291 48.348C19.8283 48.6886 20.1127 48.9713 20.4543 49.1686C20.7959 49.3659 21.1831 49.4708 21.5776 49.473C21.9691 49.473 22.3583 49.3695 22.7048 49.1693L26.9978 46.6853L31.2953 49.1693C31.8119 49.4672 32.4257 49.5481 33.0019 49.3941C33.578 49.2402 34.0696 48.864 34.3688 48.348L36.8506 44.0505H41.7983C42.395 44.0505 42.9673 43.8135 43.3893 43.3915C43.8113 42.9696 44.0483 42.3973 44.0483 41.8005V36.8528L48.3458 34.3688C48.6018 34.2209 48.8261 34.0239 49.0059 33.7893C49.1858 33.5546 49.3176 33.2868 49.3939 33.0011C49.4701 32.7155 49.4894 32.4176 49.4505 32.1245C49.4115 31.8314 49.3152 31.5489 49.1671 31.293L46.6853 27ZM21.3728 15.7275C22.2682 15.7278 23.1268 16.0838 23.7598 16.7172C24.3927 17.3505 24.7481 18.2094 24.7478 19.1048C24.7475 20.0002 24.3915 20.8588 23.7582 21.4917C23.1248 22.1247 22.266 22.4801 21.3706 22.4798C20.4752 22.4795 19.6165 22.1235 18.9836 21.4901C18.3507 20.8568 17.9953 19.9979 17.9956 19.1025C17.9959 18.2071 18.3518 17.3485 18.9852 16.7156C19.6186 16.0827 20.4774 15.7272 21.3728 15.7275ZM22.0478 37.3275L18.4478 34.6298L31.9478 16.6298L35.5478 19.3275L22.0478 37.3275ZM32.6228 38.2275C32.1794 38.2274 31.7405 38.1399 31.3309 37.9701C30.9213 37.8003 30.5492 37.5515 30.2359 37.2379C29.9225 36.9243 29.6739 36.552 29.5044 36.1424C29.3348 35.7327 29.2477 35.2936 29.2478 34.8503C29.248 34.4069 29.3354 33.9679 29.5052 33.5584C29.675 33.1488 29.9238 32.7767 30.2374 32.4633C30.5511 32.1499 30.9233 31.9014 31.333 31.7318C31.7426 31.5623 32.1817 31.4751 32.6251 31.4753C33.5205 31.4756 34.3791 31.8316 35.012 32.4649C35.6449 33.0983 36.0004 33.9571 36.0001 34.8525C35.9998 35.7479 35.6438 36.6066 35.0104 37.2395C34.3771 37.8724 33.5182 38.2278 32.6228 38.2275Z" fill="black"/>
</svg>
