<svg viewBox="0 0 20 20" fill="none" xmlns="http://www.w3.org/2000/svg">
<path fill-rule="evenodd" clip-rule="evenodd" d="M10 20C15.5228 20 20 15.5228 20 10C20 4.47715 15.5228 0 10 0C4.47715 0 0 4.47715 0 10C0 15.5228 4.47715 20 10 20ZM10.7347 13.1875C11.5852 13.5625 12.4445 13.75 13.3126 13.75H13.7501V11.3021L11.6668 10.875L10.4584 12.0833C10.1809 11.9239 9.92231 11.7521 9.68259 11.5679C9.44287 11.3838 9.22231 11.191 9.02092 10.9896C8.80564 10.7813 8.60426 10.5556 8.41676 10.3125C8.22926 10.0695 8.05912 9.81251 7.90634 9.54167L9.09384 8.34376L8.70842 6.25001H6.25009V6.68751C6.25009 7.56251 6.43759 8.42362 6.81259 9.27084C7.18759 10.1181 7.72231 10.8889 8.41676 11.5833C9.11148 12.2778 9.88412 12.8125 10.7347 13.1875Z" fill="black"/>
</svg>
