<svg viewBox="0 0 55 55" fill="none" xmlns="http://www.w3.org/2000/svg">
<path d="M27.4998 28.6458C25.3726 28.6458 23.3325 29.4909 21.8283 30.9951C20.3241 32.4993 19.479 34.5394 19.479 36.6667C19.479 38.7939 20.3241 40.8341 21.8283 42.3383C23.3325 43.8425 25.3726 44.6875 27.4998 44.6875C29.6271 44.6875 31.6672 43.8425 33.1714 42.3383C34.6756 40.8341 35.5207 38.7939 35.5207 36.6667C35.5207 34.5394 34.6756 32.4993 33.1714 30.9951C31.6672 29.4909 29.6271 28.6458 27.4998 28.6458ZM24.0623 36.6667C24.0623 35.755 24.4245 34.8807 25.0692 34.236C25.7138 33.5913 26.5882 33.2292 27.4998 33.2292C28.4115 33.2292 29.2859 33.5913 29.9305 34.236C30.5752 34.8807 30.9373 35.755 30.9373 36.6667C30.9373 37.5784 30.5752 38.4527 29.9305 39.0974C29.2859 39.742 28.4115 40.1042 27.4998 40.1042C26.5882 40.1042 25.7138 39.742 25.0692 39.0974C24.4245 38.4527 24.0623 37.5784 24.0623 36.6667Z" fill="black"/>
<path d="M40.1637 11.7241L32.8785 1.51019L6.09125 22.9098L4.60625 22.8937V22.9166H3.4375V50.4166H51.5625V22.9166H49.3579L44.9717 10.0856L40.1637 11.7241ZM44.5156 22.9166H21.5348L38.6512 17.0821L42.1392 15.966L44.5156 22.9166ZM35.6354 13.2687L17.9667 19.2912L31.9596 8.11248L35.6354 13.2687ZM8.02083 41.6373V31.6914C8.98768 31.3488 9.86587 30.7948 10.5914 30.0696C11.3169 29.3445 11.8714 28.4666 12.2146 27.5H42.7854C43.1284 28.467 43.6829 29.3452 44.4084 30.0708C45.1339 30.7963 46.0122 31.3507 46.9792 31.6937V41.6396C46.0122 41.9826 45.1339 42.537 44.4084 43.2625C43.6829 43.988 43.1284 44.8663 42.7854 45.8333H12.2192C11.8758 44.8655 11.3208 43.9865 10.5944 43.2606C9.86809 42.5347 8.98884 41.9801 8.02083 41.6373Z" fill="black"/>
</svg>
