<svg width="48" height="48" viewBox="0 0 48 48" fill="none" xmlns="http://www.w3.org/2000/svg">
<g clip-path="url(#clip0_106_71)">
<path d="M26.4 21.6V12H21.6V21.6H12V26.4H21.6V36H26.4V26.4H36V21.6H26.4ZM24 48C17.6348 48 11.5303 45.4714 7.02944 40.9706C2.52856 36.4697 0 30.3652 0 24C0 17.6348 2.52856 11.5303 7.02944 7.02944C11.5303 2.52856 17.6348 0 24 0C30.3652 0 36.4697 2.52856 40.9706 7.02944C45.4714 11.5303 48 17.6348 48 24C48 30.3652 45.4714 36.4697 40.9706 40.9706C36.4697 45.4714 30.3652 48 24 48Z" fill="black"/>
</g>
<defs>
<clipPath id="clip0_106_71">
<rect width="48" height="48" fill="white"/>
</clipPath>
</defs>
</svg>
